<?xml version="1.0" encoding="utf-8"?>
<!-- Generator: Adobe Illustrator 27.2.0, SVG Export Plug-In . SVG Version: 6.00 Build 0)  -->
<svg version="1.1" id="Layer_1" xmlns="http://www.w3.org/2000/svg" xmlns:xlink="http://www.w3.org/1999/xlink" x="0px" y="0px"
	 viewBox="0 0 1000 1000" style="enable-background:new 0 0 1000 1000;" xml:space="preserve">
<style type="text/css">
	.st0{fill:#DC252C;}
	.st1{fill:#FFE635;}
	.st2{fill:#F1AD39;}
	.st3{fill:#DC252A;}
	.st4{fill:#FFC324;}
	.st5{fill:#FF472C;}
	.st6{fill:#373737;}
</style>
<g id="ZwuA7A_00000128448744495878830140000006810108527585898669_">
	<g>
		<path d="M627.68,748.06c-16.6,12.46-34.67,14-53.93,7.45c-4.89-1.66-5.53-6.58-8.28-9.87c-0.57-0.69-1.05-1.49-1.41-2.31
			c-1-2.32-2.72-4.83-4.94-4.66c-2.42,0.18-3.05,3.34-3.79,5.61c-0.27,0.83-0.26,1.76-0.4,2.88c-2.54-1.73-2.61-5.88-5.43-6.15
			c-3.33-0.31-1.16,4.53-3.8,5.54c-1.7-0.45-0.74-2.75-2.42-3.4c-2.02,2.24-1.67,6.09-4.83,7.6c-0.26-0.24-0.66-0.44-0.68-0.66
			c-0.18-2.56,0.3-6.31-1.94-7.03c-2.66-0.86-4.81,2.46-6.21,4.63c-4.4,6.81-10.5,11.69-17.48,16.84
			c0.05-6.32-0.72-11.87-4.47-16.47c-0.9-1.1-2.32-2.93-3.19-0.59c-1.88,5.04-6.47,1.49-6.99,1c-4.46-4.2-10.78-4.32-15.69-7.83
			c-3.17-2.26-2.22,3.45-3.64,5.97c-2.35-3.21-2.5-6.74-2.75-10.97c-3.08,3.31-1.78,7.4-4.27,10.86c0.12-8.78-9.78-11.99-9.39-21.07
			c-3.94,2.95-2.32,6.77-3.09,10c-0.57-0.18-1.08-0.3-1.56-0.49c-2.22-0.85-2.79-5.58-4.75-4.17c-2.73,1.96-4.4,5.63-3.86,9.7
			c0.5,3.73,1.5,7.69-1.9,10.78l0.12,0.11c-1.06-2.76,1.45-5.35,0.21-8.66c-8.08,7.42-17.2,12.89-27.78,14.9
			c-10.82,2.05-21.28,0.15-30.92-5.5c-1.59-0.93-2.7-1.72-1.36-3.83c1.85-2.91,1.79-6.31,1.87-9.65c0.33-13.65,0.65-27.3,1.14-40.94
			c0.17-4.86-1-9.16-4.13-12.83c-1-1.17-1.26-3.69-3.31-3.15c-1.64,0.43-1.82,2.66-2.25,4.17c-2.76,9.56-1.86,19.4-1.95,29.15
			c-0.02,2.73,0,5.47-1.12,8.22c0-6.93-0.03-13.86,0.01-20.79c0.02-2.94,0.14-5.35-3.03-7.51c-3.77-2.57-3.08-8.05-5.57-12.25
			c-3.31,3.75-3.67,8.57-5.81,13.59c-1.23-5.26-0.48-9.62,0.62-14.13c-3.13,0.4-3.56,4.35-7.04,4.59c1.23-3.37,4.93-7.42-2.05-9.39
			c0.14,2.35,0.25,4.3,0.39,6.69c-12.08-7.41-11.89-20.7-16.25-31.93c-3.11,4.46-3.11,4.46-2.75,16.54
			c-3.45-5.14-4.09-10.36-3.38-16.11c-3.16,1.13-4.56,4.38-8.23,4.47c1.58-3.37,3.82-6.42,2.77-10.21c-3.24-0.1-4.76,2.59-7.55,4.14
			c0.68-2.38,1.1-4.34,1.8-6.19c2.11-5.55,2.89-10.5-3.3-14.38c-3.03-1.89-4.04-5.63-4.64-9.15c-0.47-2.76-0.79-6.37-3.42-7.03
			c-2.53-0.64-3.54,3.16-5.33,4.89c-0.66,0.63-1.22,1.36-2.36,1.93c2.48-5.56,3.01-11.38,2.9-17.26c-0.03-1.36,0.8-3.15-0.87-4
			c-1.52-0.78-2.87,0.48-4.02,1.24c-2.05,1.38-3.89,3.08-6.17,4.94c0.16-4.71,3.37-8.67,5.8-9.89c11.16-5.59,14.87-16.87,21.6-25.81
			c0.87-1.15,1.71-2.32,2.85-3.88c1.37,3.12-1.48,5.63,0.36,9.27c8.82-11.89,20.48-19.65,32.35-27.39
			c11.87-7.74,24.39-13.99,38.11-18.84c0.96,1.16-0.82,3.23-0.63,6.56c10.7-12.46,20.01-24.7,27.73-39.26
			c0.37,2.56,0.59,4.14,0.89,6.23c3.21-3.16,3.43-7.93,7.04-10.8c2.44,7.61,2.56,16.82,12.2,18.91c6.6,1.43,13.58,1.99,19.46-3
			c1.48,1.2-0.54,2.74,0.3,4.01c2.89,0.77,4.17-4.79,6.27-2.49c2.32,2.53,0.93,6.33-2.27,11.01c5.16-3.92,6.41-2.05,6.95,1.51
			c0.61,4.03,3.21,6.92,6.46,10.19c0.98-3.16-0.5-6.19,1.65-9.93c0.62,6.52,4.37,9.91,7.99,13.74c2.11,2.24,5.18-0.95,6.28,2.6
			c0.85,2.74,1.65,5.73,4.01,7.78c1.66,1.44,3.17,3.57,5.11,4.1c7.1,1.97,11.17,6.77,13.97,13.16c0.64,1.45,1.46,3.58,3.26,3.38
			c2.63-0.3,1.1-3.07,2-4.73c5.08,2.53,3.1,7.12,3.12,11.2c3.01-0.36,3.52-3.02,4.84-4.81c2.34,1.93,1.75,4.97,3.27,7.05
			c3.62-1.14,2.98-4.78,4.58-7.79c5.92,11.24,16.47,14.23,27.95,16.88c-1.84-4.14-5.75-6.41-6.43-10.66
			c12.06-1.44,23.63-0.21,35.72,3.18c-1.72-4.98-6.13-7.61-7.13-12.61c3.17,0.65,5.97,1.27,8.79,1.76c0.87,0.15,1.96,0.17,2.44-0.79
			c0.52-1.06-0.52-1.53-1.07-2.24c-3.43-4.47-7.51-8.37-12.77-13.14c10.91-1.13,16.39,6.67,24.22,9.96
			c0.16-4.56-3.34-7.47-4.22-11.66c3.96,1.05,6.38,3.91,9.83,5.45c-4.79-13.28-8.01-27.31-20.11-36.46
			c-7.67-5.79-15.63-11.64-20.75-19.63c-4.43-6.91-9.36-13.47-13.75-20.38c-1.86-2.92-3.43-3.88-3.98,2.07
			c-4.38-9.21-7.84-17.35-13.3-24.6c1.6,0.93,3.21,1.86,6.22,3.61c-1.79-2.9-2.75-4.46-4.57-7.43c3.06,2.75,4.89,4.38,6.89,6.17
			c1.27-7.95-6.92-17.4-16.17-18.54c-11.14-1.37-21.04-5.65-30.34-11.68c4.53,0.46,9.25,0.92,12.87,3.68
			c4.84,3.7,10.03,4.22,15.65,3.52c3.61-0.45,5.66-2.52,5.84-6.21c0.31-6.38-1.41-11.67-8.46-14.22c2.49-1.42,4.42-3.05,6.64-3.68
			c5.02-1.44,6.56-2.2,8.18-7.92c4.1-14.45,3.73-28.02-8.24-39.29c-6.1-5.74-6.18-7.69-2.51-15.67c-4.29,1.47-8.13,2.83-11.99,4.1
			c-6.3,2.06-11.42,0.59-15.81-4.59c-6.83-8.05-13.1-16.81-24.86-20.98c6.87-1.66,11.79-1.21,16.67,1.9
			c5.74,3.65,11.8,6.83,17.85,9.96c11.36,5.89,21.21,0.02,27.36-12.35c-8.69,0.47-16.88-1.39-25.18-2.56
			c-10.7-1.51-20.94-4.36-30.48-9.46c-9.08-4.85-19.43-5.63-28.94-9.2c-2.7-1.01-5.83,1.43-8.6,2.71
			c-10.37,4.81-20.67,9.79-31.09,14.51c-6.5,2.95-13.23,4.81-20.32,1.86c-2.55-1.06-2.84,0.13-2.56,2.3
			c1.15,8.99,7.89,12.32,15.26,7.27c4.95-3.39,10.39-5.16,16.17-6.51c0.66,3.37-1.75,4.58-3.38,6.13
			c-5.13,4.88-8.45,10.65-9.06,17.8c-0.13,1.52-0.05,2.7-2.22,3.02c-5.52,0.8-7.33,4.77-7.88,9.81c-0.26,2.36,1.21,6.62-4.28,4.72
			c-1.42-0.49-1.15,1.42-1.24,2.44c-0.99,11.98-6.03,22.29-13.13,31.73c-1.12,1.49-1.86,3-2.36,4.87
			c-3.68,13.66-11.98,23.02-25.87,26.87c-6.38,1.77-12.83,3.23-19.66,3.86c19.51-24.95,19.71-40.64,0.79-63.13
			c0.93-1.95,5.56-1.15,4.14-4.96c-1.18-3.18-3.42-5.53-6.73-5.92c-3.12-0.36-4.78-1.27-4.45-4.64c0.34-3.54,0.46-7.23,4.89-8.2
			c1.59-0.35,3.43-0.54,4.93-0.07c8.1,2.56,13.89-1.15,19.2-6.6c10.32-10.58,18.6-22.38,22.17-37.07c1.93,1.56,1.15,6.11,3.86,5.2
			c3.17-1.07,6.88-2.99,7.86-7.04c1.76-7.22,2.71-7.75,9.22-4.5c0.92,0.46,1.7,0.57,2.59,0.14c10.48-5.08,21.85-4.66,33.04-5.43
			c3.85-0.26,11.13-7.66,11.05-11.33c-0.06-2.93-4.2-1.67-5.09-4.38c1.3-0.13,2.54-0.34,3.79-0.38c8.16-0.23,8.16-0.22,6.02,7.27
			c-1.41,4.94-1.19,9.66,0.8,14.26c3.64-4.36,8.23-3.94,13.05-2.89c18.18,3.95,36.46,5.68,54.89,1.83
			c6.16-1.28,11.27-4.37,15.06-9.52c1.53-2.08,1.97-3.6-0.6-5.46c-6.15-4.46-12.87-7.9-19.44-11.62c-1.81-1.02-3.54-0.44-5.3,0.27
			c-7.45,2.99-14.34,6.74-19.44,13.23c-2.04,2.6-4.44,4.92-6.8,7.5c1.42-7.28,8.69-17.94,16.81-23.52c4.2-2.88,2.73-4.23-0.59-5.72
			c-3.97-1.78-8.02-3.38-11.98-5.28c7.63,0.86,15.45,0.95,22.31,5.1c1.43,0.86,2.58,1.1,4.1,0.47c7.28-3.02,14.93-3.96,22.76-3.9
			c1.03,0.01,2.44,0.33,2.92-0.95c0.45-1.21-0.63-2.06-1.45-2.72c-1.72-1.38-3.53-2.64-5.36-3.88c-0.84-0.57-1.43-1.27-1.24-2.26
			c0.24-1.25,1.37-1,2.23-0.97c2.01,0.08,4.41-0.4,5.95,0.53c7.28,4.39,12.69-0.27,18.11-3.63c4.03-2.51,7.5-5.96,11.06-9.17
			c7.23-6.54,15.99-8.83,25.38-9.64c3.22-0.28,5.54,0.97,8.87,3.99c-16.1-1.09-27.39,6.7-40.09,15.65
			c12.98-0.23,24.05,1.63,34.62,6.18c10.57,4.56,18.65,12.09,26.11,22.06c1.62-10.39-0.33-19.25-3.08-29.34
			c8.42,6.56,8.94,15.41,12.21,23.08c5.91-14.15,5.41-27.87-2.93-41.42c22.44,13.22,25.66,40.75,19.17,59.66
			c-1.25,3.63-0.95,5.78,1.37,8.75c6.16,7.89,8.27,17.36,7.92,27.09c-0.31,8.56-2.74,17.16,3.43,24.63
			c-1.21,0.64-1.52,0.95-1.82,0.94c-7.55-0.22-7.54-0.22-8-7.82c-0.24-4.06-0.79-8.08-2.24-11.9c-1.15-3.02-1.19-2.84-4.82-2.36
			c-0.95,0.13-2.19-1.04-3.12-1.81c-4.72-3.89-9.78-7.26-15.19-10.09c-10.64-5.58-18.2-6.74-33.5-5.06
			c20.06-9.21,36.45-4.58,51.4,11.43c0.43-10.84-2.65-19.26-8.02-26.72c-10.53-14.64-28.19-18.58-43.09-10.36
			c-7.81,4.3-10.19,11.65-10.79,19.45c-1.21,15.58-0.22,31.01,7.59,45.14c4.12,7.47,10.5,11.14,19.14,10.6
			c9.98-0.62,19.72-2.29,29.19-5.74c8.76-3.18,18.03,3.45,18.41,12.78c0.02,0.59-0.46,1.34-0.93,1.78c-0.8,0.75-1.9,1.18-2.67,1.95
			c-4.9,4.93-9.1,7.27-16.52,2.47c-8.06-5.21-16.83-2.14-23.7,4.51c-6.84,6.62-9.33,14.47-5.54,23.63
			c3.03,7.33,7.1,13.8,14.97,16.87c1.16,0.45,2.51,0.71,2.6,2.44c0.4,7.89,3.98,14.41,8.81,20.41c0.35,0.44,0.07,1.38,0.09,2.09
			l0.1-0.13c-1.44-0.74-2.34-2.12-4.15-2.54c-18.29-4.28-30.93-19.77-31.23-38.46c-0.05-3.36-1.1-5.19-3.93-7.02
			c-6.78-4.38-10.31-11.38-13.42-18.54c-1.02-2.35-1.81-4.8-3.11-8.32c-5.02,9.74-12.74,15.38-21.57,19.72
			c-1.48,0.73-1.93,2.16-2.19,3.65c-1.06,6.14-3.84,11.53-7.47,16.48c-1.6,2.18-2.31,4.42-1.93,7.43c3.46-0.18,7.55-1.55,10.2,2.44
			c-1.17,1.53-3.1,1.21-4.49,2.04c-1.71,1.02-3.27,2.09-0.87,4.1c0.65,0.54,1.54,1.86,1.33,2.21c-3.14,5.13,1,8.49,2.54,12.66
			c1.69,4.6,2.08,9.71,1.85,14.74c-0.03,0.63,0.35,1.7,0.81,1.87c10.17,3.87,10.4,13.39,12.17,21.81
			c1.54,7.35,9.39,16.15,16.91,17.93c3.43,0.81,6.67,1.99,9.33,4.58c-1.47,1.72-4.57-1.11-5,1.48c-0.4,2.37,2.36,2.84,4.08,3.83
			c2.23,1.28,4.43,2.65,6.5,4.18c1.96,1.45,1.64,2.09,1.84,5.48c0.11,1.8,1.51,3.82,2.87,5.2c7.4,7.51,13.46,16.13,20.24,24.16
			c4.83,5.71,11.99,7.77,18.35,11.01c4.77,2.43,9.49,4.86,13.92,7.9c6.44,4.42,13.47,6.77,21.4,5.12c0.48,2.27-2.89,1.82-2.5,3.98
			c1.95,0.67,3.83-1.37,5.83-0.29c0.01,1.09-0.88,1.35-1.62,1.84c-5.39,3.54-5.48,4.49-1.19,9.22c1.48,1.63,3.02,3.3,4.06,5.2
			c0.54,0.99,3.79,3.05-0.75,3.91c-1.46,0.28,0.26,2.81,1.06,4.14c2.05,3.41,4.86,6.48,4.9,10.89c-1.8,0.13-2.05-1.53-3.09-2.12
			c-1.28-0.73-2.49-1.88-4.05-1.2c-1.83,0.79-1.9,2.66-1.83,4.28c0.12,2.76,0.49,5.5,0.8,8.25c0.77,6.84,0.96,13.68-1.17,20.3
			c-3.12,9.71-0.1,16.91,8.39,22.14c0.77,0.47,1.45,1.1,2.24,1.71c-0.33,0.29-0.55,0.64-0.73,0.61c-2.68-0.37-5.77-2.94-7.77-1.29
			c-2.12,1.74,1.39,4.47,1.21,7.02c-0.08,1.08-0.01,2.16-0.01,3.34c-0.62-0.19-1.09-0.19-1.27-0.41c-1.41-1.71-1.66-5.47-4.47-4.58
			c-2.02,0.64-0.59,3.96-0.83,6.06c-0.33,2.89-0.26,5.82-1.9,8.44c-1.52-0.11-1.1-1.26-1.28-2.01c-0.48-1.96-0.8-4.61-3.26-4.34
			c-2.24,0.25-1.79,3.05-1.8,4.68c-0.03,8.13-4.02,13.52-11.54,17.13c0.98-3.61,3.73-6.25,4.13-9.76c0.14-1.24,0.66-2.91-0.93-3.37
			c-1.72-0.49-1.85,1.37-2.29,2.45c-0.9,2.21-1.65,4.48-2.55,6.96c-2.2-2.05-0.84-4.83-1.8-7.51c-4.04,4.5-4,10.35-6.78,16.22
			c-0.59-2.51-0.96-4.08-1.33-5.64c-0.91,2.91-4.05,1.47-4.94,2.42c-1.78,1.9-2.23,4.98-3.64,7.32c-0.81,1.34,0.31,5.05-3.52,3.54
			c-0.04-0.01-0.99,1.52-0.79,1.8c2.06,2.79,0.62,6.51,2.24,9.17c4.83,7.9,1.63,14.46-3.01,20.81c-2.77,3.78-6.39,6.59-10.88,8.15
			c1.69-1.57,2.71-3.31,2.44-5.81c-1.13-10.42-2.23-20.84-5.34-30.92c-1.61-5.23-4.75-9.08-10.04-10.9
			c-2.29-0.79-4.71-1.53-6.73,0.47c-1.99,1.97-0.85,4.35,0.09,6.18c6.36,12.3,11.76,24.94,14.63,38.56
			C623.49,748.32,624.95,749.56,627.68,748.06z M575.91,607.61c1.34,4.58,2.47,9.23,4.09,13.71c1.89,5.22,7.12,6.32,10.23,2.05
			c4.38-6.02,5.48-12.94,2.69-19.9c-2.53-6.31-8.52-5.35-13.8-5.36c-1.8-0.01-3.6,0.29-5.74,0.47c0.8,2.97,1.5,5.59,2.21,8.21
			c-2.8-6.26-7.1-9.62-14.46-10.19c-8.14-0.63-15.6-4.27-22.26-9.16c-6.61-4.85-13.19-9.76-20.06-14.85
			c-0.13,1.03-0.3,1.55-0.25,2.06c1.36,14.31,2,28.68,3.08,42.99c1.08,14.24,6.59,27.24,19.59,35.48c11.68,7.4,22.2,4.45,28.61-7.75
			C576.1,633.41,579.46,621.09,575.91,607.61z M389.05,649.45c3,1.85,3.8-1.34,5.28-2.51c7.32-5.79,16.21-3.9,20.22,4.48
			c0.77,1.6,0.99,3.57,3.32,4.74c1.12-3.5,0.82-6.36-1.48-9.26c-2.93-3.69-6.46-7.08-7.44-12.01c0.78,0.43,1.67,0.74,2.34,1.3
			c7.32,6.15,13.1,6.23,20.07-0.21c8.11-7.49,13.68-16.53,14.61-27.73c1.26-15.33,0.21-30.6-2.62-45.71
			c-2.12-11.3-6.07-22.05-11.07-32.36c-3.53-7.27-5.69-7.86-12.34-3.56c-5.56,3.6-10.65,7.92-16.24,11.46
			c-4.15,2.63-5.33,6.29-5.34,10.74c-0.01,4.15,0,8.3,0,12.44c-0.56,0.01-1.12,0.01-1.68,0.02c0-5.51,0-11.01,0-17.64
			c-6.72,6.17-13.28,10.74-15.88,18.39c-1.46,4.29-1.15,8.8-6.47,11.36c-3.35,1.61-6.03,4.91-10.39,6.85
			c1.48-5.87,5.98-9.35,7.94-15.02c-13.5,5.8-20.88,16.22-25.57,28.41c-1.8,4.67-2.89,11.11,0.27,15.61
			c5.59,7.97,9.62,16.99,16.42,24.14c5.48,5.76,10.2,12.09,14.32,18.93c2.86,4.76,5.99,9.48,10.76,13.17
			c1.24-3.06-0.31-5.51-0.11-8.03C388.16,654.78,387.33,651.95,389.05,649.45z M541.99,710.7c4.58-1.15,9.17-1.91,13.44-3.49
			c3.76-1.39,6.25-10.07,3.57-12.17c-8.42-6.62-10.94-16.38-14.33-25.68c-0.93-2.57-2.06-4.4-4.76-5.57
			c-7.84-3.4-13.37-9.31-15.97-17.41c-5.56-17.34-16.31-30.69-30.48-41.73c-3.31-2.58-4.65-2.92-6.78,1.23
			c-4.01,7.83-6.16,16.66-12.11,23.45c-5.45,6.22-7.64,13.72-9.18,21.59c-2.12,10.83-3.33,21.89-8.1,32.05
			c-0.76,1.61-0.77,2.91,0.8,4.38c7.96,7.41,16.67,13.86,25.48,20.17c5.13,3.67,11.11,4.58,17.34,4.64
			C514.68,712.26,528.19,706.38,541.99,710.7z M627.88,677.83c7.7-6.43,12.66-13.91,17.29-21.57c2.74-4.54,6.01-8.94,6.86-14.37
			c2.65-17.14-8.12-33.89-24.8-38.81c-2.55-0.75-3.94-0.44-3.38,2.67c0.26,1.44,0.26,2.93,0.44,4.39
			c1.06,8.63,1.52,17.02-2.26,25.42c-3.22,7.16-4.2,15.21-0.71,22.56C624.18,664.17,626.42,670.28,627.88,677.83z M565.68,718.82
			c-0.34,15.93,6.24,25.95,19.39,30.25c2.8,0.92,5.44,1.26,7.74-0.89c2.28-2.13,2.34-4.92,1.58-7.69c-0.53-1.93-1.35-3.8-2.22-5.62
			c-3.61-7.52-8.63-14.1-14.06-20.33c-2.28-2.62-4.41-6.94-8.73-5.37C564.85,710.82,566.3,715.68,565.68,718.82z M410.82,733.05
			c6.7-8.74,12.43-17.93,19.78-25.94c4.22-4.59,8.64-9.05,11.93-14.42c1.17-1.91,2.4-4.12,0.71-6.12c-1.43-1.7-3.67-1.33-5.69-0.73
			c-3.73,1.1-7.24,2.56-10.31,5.08C413.84,701.88,412.54,717.56,410.82,733.05z M572.92,674.07c0.78,3.25,1.35,6.15,2.18,8.97
			c0.56,1.91,1.14,4.29,3.59,4.4c2.89,0.12,2.82-2.65,3.06-4.46c0.93-7.08,5.38-11,11.51-13.62c1.86-0.79,3.77-1.58,5.45-2.67
			c1.58-1.03,2.69-2.52,1.93-4.7c-2.53-7.19-14.16-10.38-19.54-4.84C576.57,661.81,574.84,668.19,572.92,674.07z M501.4,556.56
			c0.22,10.33,10.37,48.28,13.81,52.09c0.61-10.96,0.99-21.78-0.16-32.62C514.12,567.2,509.61,561.12,501.4,556.56z"/>
		<path d="M475.99,238.71c0.17-0.33,0.45-0.64,0.48-0.98c0.24-2.35,1.16-5.47-0.84-6.68c-1.65-1-4.54-0.2-6.68,1.11
			c-3.84,2.36-7.74,4.62-12.03,6.55c2.66-5.89,4-12.46,10.35-16.03c1.49-0.84,4.42-1.85,2.56-4.45c-1.66-2.31-3.57-0.63-5.2,0.65
			c-0.71,0.56-1.46,1.55-2.18,1.54c-9.45-0.19-17.21,4.55-25.11,8.73c-1.12-1.51,0.02-2.46,0.7-2.95c5.3-3.78,9.37-8.76,13.6-13.6
			c4.09-4.67,5.73-4.68,10.17-0.74c1.56,1.38,3.07,3.13,5.57,3.07c0.55-2.23-0.97-3.39-2.04-4.36c-5.05-4.53-8.76-9.6-8.49-16.81
			c0.13-3.42-3.16-1.35-4.73-2.78c6.01-8.77,13.76-15.71,22.39-21.75c1.04-0.73,2.7-1.93,3.46-0.79c3.25,4.85,5.14,1.09,7.29-0.93
			c2.18-2.05,4.02-1.04,5.82,0.51c5.76,4.94,10.18,10.62,10.91,18.58c0.19,2.08-0.19,4.41,1.61,6.68c2.82-6.2,4.26-12.33,4.66-19.29
			c5.63,2.86,8.18,8.22,11.65,12.94c-0.04-8.13-6.84-18.38-13.93-22.12c-2.7-1.42-4.75-4.01-7.23-5.89
			c-3.9-2.95-7.74-2.53-10.64,1.31c-1.41,1.87-3.21,2.22-5.02,3.01c-0.78-6.52,2.98-13.45,9.13-15.79
			c8.43-3.21,17.03-5.99,25.55-8.95c0.7-0.24,1.44-0.41,2.06-0.79c11.77-7.18,25.65-11.15,34.43-22.88c1.88-2.51,5.57-2.9,7.75-5.5
			c-1.73,3.96-3.46,7.92-5.68,13.02c10.27-6.06,17.87-13.44,26.91-21.6c-11.46,20.57-26.51,35.04-46.56,44.61
			c19.37-2.82,39.05,1.74,58.1-4.21c-12.61,10.7-26.62,18.9-43.41,25.37c5.54,2,9.21,0.62,13.91,0.09
			c-9.55,5.06-18.95,4.09-28.03,4.29c-2.6,0.06-5.22-3.18-7.92-4.75c-1.96-1.14-4.62-3.46-6.25-1.17c-1.7,2.39,1.18,4.03,3.18,5.45
			c5.83,4.12,10.48,9.22,12.95,16.21c-1.95,0.75-2.02-1.98-4.11-1.65c1.75,6.68,6.98,10.93,11.2,17.55
			c1.21-8.24,0.41-14.91-2.54-21.24c-1.59-3.42-1.64-4.86,2.88-5.3c7.88-0.77,15.69-2.25,23.5-3.64
			c11.16-1.99,20.16-9.45,30.98-12.45c3.94-1.09,4.93-6.04,8.77-8.63c-3.56,8.39-13.03,18.36-18.75,20.78c4.54,0,9.09,0,14.1,0
			c-1.25,3.35-3.33,4.78-5.46,6.17c-6.51,4.27-13.7,7.2-20.63,10.66c-1.76,0.88-3.07,0.54-4.68-0.06
			c-7.06-2.64-14.43-2.61-21.83-2.63c-3.12-0.01-3.22,1.48-2.79,3.86c0.95,5.22,2.39,8.81,9.3,8.36
			c13.44-0.88,25.56,3.73,37.16,10.46c3.43,1.99,7.2,3.1,10,7.9c-8-4.09-15.55-6.1-23.7-6.13c0.03,3.1,3.97,4.21,3.19,7.61
			c-6.86,0.35-13.67,1.54-20.5,2.92c-3.05,0.62-6.66-1.43-9.99-2.33c-5.45-1.48-5.44-1.5-8.45,3.67
			c-0.83-6.95,1.99-14.29-4.25-20.29c-1.92,4.39,0.04,9.14-2.75,12.92c-0.81,1.1-0.7,1.59-2.47,1.54
			c-8.02-0.25-13.69,3.05-15.84,11.4c-2.08,8.05-9.62,12.95-12.4,20.68c-0.16,0.43-1.3,0.51-1.99,0.75
			c-7.33,2.48-14.65,4.96-22.45,7.6c0.8-8.38-1.72-15.71-5.5-22.76c-2.57,0.85-0.8,4.02-3.29,4.31L475.99,238.71z M512.74,201.82
			c-2.88,2.47-4.79,4.5-7.06,5.95c-2.12,1.35,3.7,2.98-0.34,3.77c-3.19,0.62-5.57,3.74-8.35,3.99c-6.4,0.59-12.81,0.61-19.12,2.22
			c-1.53,0.39-3.63-1.6-5.13,0.09c-1.62,1.81-0.6,3.95,0.42,5.67c4.93,8.33,11.62,15.19,18.66,21.71c1.87,1.73,4.33,1.38,6.26,0.31
			c7.02-3.91,9.47-11.1,11.88-18.01c1.67-4.79-3.16-6.92-5.54-9.99c-0.15-0.19-0.11-0.53-0.24-1.25c1.67,0.98,3.2,1.62,4.41,2.64
			c2.04,1.73,3.43,1.53,3.56-1.19C512.39,212.83,513.89,207.97,512.74,201.82z M477.43,199.18c-0.23,0.19-0.46,0.37-0.69,0.56
			c-1.61-1.74-3.2-3.51-4.85-5.21c-1.32-1.36-2.25-0.78-2.91,0.72c-2.32,5.25-1.32,12.01,2.7,15.58c2.52,2.23,5.46,4.18,8.29,0.07
			c1.9-2.76,5.07-2.15,7.39-1.68c6.65,1.36,12.36-0.25,17.42-4.33c2.49-2.01,3.57-5.74,1.79-7.91c-1.74-2.14-3.39,1.67-5.3,2.39
			c-0.16,0.06-0.34,0.05-1.03,0.13c0.88-2.27-0.88-4.01-0.76-6.23c0.09-1.67-0.41-3.58-2.29-3.98c-1.7-0.36-2.42,1.4-3.2,2.59
			c-2.11,3.23-4.14,6.52-6.81,10.75c0.26-5.26,2.11-8.7,3.56-12.24c2.42-5.91,1.61-7.9-4.14-11.73c-5.02-3.35-7.35,0.27-9.96,3.39
			c-5.32,6.37-5.88,8.76-0.68,14.27C476.68,197.06,476.96,198.21,477.43,199.18z M517.08,203.67c6.91-6.04,9.77-14.64,6.68-20.2
			C524.89,191.37,518.67,196.65,517.08,203.67z M533.19,201.05c-0.14-0.62,0.2-1.55-1.24-1.72c-2.11-0.25-8.3,3.7-8.25,5.44
			c0.04,1.43,1.05,1.9,2.19,1.91C529.62,206.7,532.08,204.9,533.19,201.05z"/>
		<path d="M382.97,479.1c1.98,4.48,3.68,8.35,5.42,12.19c0.11,0.25,0.6,0.32,1.68,0.87c0.34-5.86,0.81-11.47,2.89-16.71
			c0.68-1.71,1.29-3.46,2.13-5.1c0.4-0.78,1.15-1.7,1.92-1.9c4.33-1.12,4.39-1.43,6.89-5.95c1.39-2.51,3.68-4.54,5.66-6.7
			c3.08-3.37,6.11-6.76,7.61-11.65c-3.17,0.04-3.67,3.43-7.17,3.85c2.5-3.63,4.15-7.18,6.82-9.63c3.1-2.85,2.26-8.27,7.56-9.74
			c4-1.1,8.42-0.24,12.05-2.76c1.44,4.57,2.57,9.14,1.53,14.03c-0.42,1.99,0.04,2.43,2.2,1.54c1.96-0.81,2.28,0.71,3.01,1.42
			c3.5,3.34,6.17,2.38,8.54-1.32c1.29-2.02,2.66-3.99,4.02-5.97c0.83-1.22,1.69-2.85,3.24-2.76c5.25,0.31,8.69-2.29,11.37-6.39
			c1.34-2.05,2.7-1.41,3.97,0.04c1.71,1.96,3.2,4.12,3.64,6.73c1.68,9.82,7.4,17.08,14.55,23.5c2.33,2.09,4.63,4.24,6.72,6.57
			c1.38,1.53,3.85,3.2,1.83,5.61c-1.57,1.88-3.9,2.73-6.5,1.6c-8.01-3.49-14.7-8.34-18.35-16.7c-0.92-2.1-0.59-6.08-4.01-5.59
			c-3.11,0.44-5.74,3.29-6.45,6.33c-1.89,8-1.65,16.08,1.15,23.92c0.86,2.42,3.07,3.63,5.1,4.89c4.22,2.62,8.58,4.96,12.4,8.27
			c4.06,3.51,8.88,1.78,13.18,0.28c3.63-1.27,7.08-2.61,11-1.92c2.71,0.48,3.8-0.97,3.6-3.46c-0.16-2.01-0.59-3.99-0.96-6.4
			c3.47-0.35,6.01,1.91,8.79,3.35c2.44-6.33,2.07-7.32-8.92-23.87c3.91-0.19,7.73-0.37,12.39-0.59c-1.8,1.85-3.7,3.43-0.37,5.02
			c2.11,1.01,3.88,2.8,5.66,4.4c2.67,2.4,5.53,3.53,9.11,2.29c3.39-1.18,5.62-0.28,6.62,3.52c1.48,5.6,3.28,11.12,5.01,16.87
			c-2.71-0.24-3.78-3.18-7.08-3.09c5.59,7.24,7.7,15.19,7.31,24.26c-3.85-1.61-6-5.82-10.68-5.93c2.25,8.87,8,13.64,17.46,16.24
			c-2.96,0.37-4.67,0.42-6.27,0.83c-2.56,0.65-0.47,3.31-1.62,4.52c-2.49,0.6-4.4-3.23-6.03-1.52c-1.88,1.97,0.26,4.83,0.75,7.3
			c0.69,3.52,4.82,7.64,2.14,10.12c-2.42,2.24-6.44-1.95-9.89-2.91c-3.7-1.03-7.26-2.57-10.88-3.9
			c-7.69-2.83-15.19-6.09-19.98-13.17c-7.1-10.49-17.69-17.52-26.04-26.76c-5.85-6.47-12.84-12.1-15.07-22.39
			c-2.42,5.73-1.16,10.58-2,16.8c-0.61-6.63-4.06-10.24-6.69-14.28c-1.57-2.41-3.68-2.64-6.26-1.36c-4.29,2.13-8.28,4.71-12.6,7.28
			c1.65-2.49,3.11-5.14,5.01-7.42c3.04-3.65,1.56-7.64,1.08-11.45c-0.29-2.33-6.35-2.06-9.21,0.21
			c-12.15,9.65-18.44,23.28-24.8,36.81c-1.23,2.62-3.68,4.58-3.64,8.08c-3.76-7.36-1.82-14.67-1.94-21.83
			c-0.03-1.96,0.29-4.88-1.74-5.4c-2.25-0.58-2.88,2.4-3.82,4.06c-2.71,4.78-2.62,10.29-3.78,15.88
			C385.56,496.31,382.6,488.77,382.97,479.1z"/>
		<path d="M663.85,817.82c0.12-5.65,0.86-11.35-1.26-16.84c-0.71-1.83-0.93-3.97-3.55-4.96c3.39,13.92-6.44,19.94-15.66,25.46
			c-10.95,6.56-22.66,4.98-34.11,0.43c-3.01-1.2-3.08-4.4-4.58-6.59c-6.23-9.12-12.47-18.22-19.11-27.06
			c-4.2-5.6-7.31-11.92-10.22-19.45c7.11,2.2,13.62,3.84,20.43,4.09c8.97,0.33,17.74-0.55,26.01-3.94
			c12.23-5.02,19.84-15,25.88-26.17c2.73-5.04,1.73-10.81,1.16-16.32c-0.13-1.22-1.08-2.39,0-3.88c2.22,2.94,2.11,6.36,1.87,9.47
			c-1.02,13.23,2.52,25.99,3.66,39c0.32,3.67,1.18,7.29,1.41,10.96c0.33,5.35,2.02,9.68,6.04,13.62c4.76,4.65,5.27,16.41,1.9,22.09
			L663.85,817.82z"/>
		<path d="M446.57,751.26c0.45,1.67-0.37,3.11-1.51,3.92c-4.84,3.47-5.39,8.76-6.61,13.95c-2.62,11.13-6.23,21.97-10.66,32.52
			c-1.76,4.2-3.24,8.25-2.51,13.2c0.68,4.57,0.11,9.58-4,13.08c0,0,0.11,0.12,0.11,0.12c-0.09-4.06,2.62-7.63,1.93-12.09
			c-10.99,11.34-24,15.19-39.28,11.09c-9.49-2.55-11.21-4.3-11.33-14.18c-0.23-18.79-0.28-37.58-0.37-56.37
			c-0.01-1.6,0.29-3.21,0.54-5.9c3.1,4.38,4.87,8.47,8.61,11.3c14.24,10.8,29.34,8.27,44.79,3.81c8.51-2.46,14.45-8.34,20.4-14.33
			C446.7,751.37,446.57,751.26,446.57,751.26z"/>
		<path d="M335.28,880.05c0.9-4.8,3.22-7.07,8.46-5.41c2.11,0.67,4.22-0.19,6.01-1.92c3.89-3.78,9.31-5.77,12.29-10.7
			c0.75-1.23,2.34-0.38,3.57-0.15c10.72,2.04,16.68,10.05,22.61,18.06c0.96,1.3,1.63,2.82,2.33,4.06
			c11.85-10.79,25.76-20.21,23.15-39.58c-5.73,1.9-9.3,8.53-17.3,7.82c8.84-4.4,16.07-9.19,20.49-17.31
			c-5.42,3.31-10.68,6.83-17.64,5.71c9.42-0.8,14.73-8.5,22.17-12.58c0,0-0.11-0.12-0.11-0.12c-4.73,8.86-5.37,18.7-6.8,28.36
			c-0.43,2.92-1.07,5.8-1.47,8.72c-0.97,7.07-3.87,12.96-9.83,17.19c-7.94,5.64-12.22,14.2-17.05,22.19
			c-7.67,12.69-19.11,20.79-31.83,27.39c-5.16,2.68-10.78,1.63-16.18,0.12c1.98-0.28,4.86,1.07,5.29-2.17
			c0.35-2.68,0.32-5.41-3.51-6.3c-5.89-1.37-8.35-6.06-9.98-11.4c-0.5-1.65,0.33-4.15-2.51-4.55c0.91-5.42,1.87-10.82,2.73-16.25
			c0.44-2.82,1.49-5.26,3.68-7.14c-1.14,1.69-2.67,4.29-1.17,5.35c2.25,1.58,3.78-1.32,5.19-2.84c1.75-1.88,3.25-3.99,4.79-6.04
			c1-1.33,3.51-2.45,2.07-4.33c-1.28-1.67-3.81-1.13-5.72-0.56C336.96,876.27,335.66,877.85,335.28,880.05z"/>
		<path d="M258.16,382.51c2.45,2.72,3.75,5.26,7.07,3.68c1.69-0.8,1.42,0.73,1.63,1.78c1.73,8.73,3.45,9.72,12.69,6.86
			c-2.37,4.61-0.72,7.92,2.65,10.77c3.09,2.61,5.83,5.71,9.18,7.91c4.76,3.12,8.76-0.03,11.56-3.3c4.71-5.5,9.56-10.48,15.78-14.45
			c4.59-2.93-0.17-6.14-2.17-7.7c-2.22-1.74-3.1-3.2-3.38-5.9c-0.41-3.85-3.28-6.51-5.93-9.08c-1.07-1.05-2.47-1.76-3.77-0.08
			c-5.24,6.73-13.13,9.46-20.15,13.53c3.31-5.67,7.58-10.45,13.75-12.61c5.09-1.78,6.09-4.1,2.92-8.36
			c-0.54-0.72-0.87-1.6-1.52-2.82c7.34-0.48,10.8-4.28,9.75-12.95c3.9,4.99,4.84,9.34,5.15,13.82c0.3,4.31,0.84,6.63,6.67,6.98
			c16.9,1.01,27.75,11.42,27.84,33.48c0.06,14.2-6.2,25.07-14.71,35.37c-0.99,1.2-2.08,1.31-3.36,1.43
			c-12.2,1.15-24.44-0.29-35.09-5.69c-9.07-4.6-19.34-9.92-20.34-22.6c-0.19-2.4-1.96-3.83-3.39-5.52
			C265.14,400.14,259.33,393.21,258.16,382.51z M276.39,414.13c0.95,4.69,2.02,7.9,5.22,10c6.73,4.41,14.29,7.16,22.01,5.2
			c13.21-3.36,22.97-9.3,20.03-22.58c-0.52-2.34-0.47-6.32-3.2-6.21c-2.87,0.12-3.14,3.73-3.46,6.61
			c-0.56,5.01-1.81,10.12-6.6,12.78c-8.53,4.72-17.27,6.39-25.88-0.12C282.17,418.05,279.72,416.46,276.39,414.13z"/>
		<path d="M641.49,443.66c2.12-1.96,4.11,0.6,6.8,0.17c-3.67-4.78-7.12-9.13-8-15.26c-1.75-12.12,1-23.29,6.89-33.4
			c8.27-14.21,19.63-25.28,36.43-29.2c0.31-0.07,0.54-0.48,0.8-0.73c-0.16-1.77-1.55-1.15-2.49-1.32c-0.89-0.16-1.79-0.21-2.79-0.31
			c0.98-1.79,2.43-1.08,3.67-1c1.8,0.11,2.79-0.32,2.63-2.43c-0.46-6.38,2.81-11.19,7.02-16.04c-0.13,1.29-0.12,2.22-0.32,3.1
			c-0.99,4.48-0.31,8.2,4.7,9.66c3.13,0.92,6.97-2.85,8.59-7.18c1.26-3.37,3.16-6.62,5.3-9.53c3.18-4.32,7.36-4.01,12.99,0.93
			c-3.79-0.78-6.93-2.31-9.61,1.78c-4.72,7.22-4.95,7.25,2.52,11.73c5.02,3.02,8.48,7.51,11.03,13.14
			c-5.6-3.57-11.23-7.09-16.8-10.71c-2.84-1.85-5.36-3.46-7.47,0.99c-1.72,3.62-4.09,6.83,1.44,9.49c3.55,1.71,7.01,3.93,8.38,8.1
			c-4.2,1.25-6.85-2.18-10.22-3.42c-1.37-0.51-2.63-1.33-3.95-1.98c-7.63-3.78-10.95-3.1-13.36,4.82c-1.71,5.64-6.02,6.8-9.96,9.11
			c-0.46,0.27-1.08,0.27-1.55,0.52c-9.16,4.77-12.87,24.69-6.64,35.59c5.13,8.98,17.56,11.15,27.71,4.6
			c3.53-2.28,6.66-5.18,10.01-7.81c-2.89,16.67-23.43,30.69-41.52,28.22c-2.98-0.41-5.63-0.31-8.58,0.59
			c-4.72,1.44-9.4,0.46-13.56-2.38C641.59,443.53,641.49,443.66,641.49,443.66z"/>
		<path d="M685.03,943.65c3.78-3.5,2.9-8.16,3.54-12.98c-5.19,1.12-10.17,2.13-15.27,1.71c-3.28-0.27-5.94-0.59-5.12-5.26
			c0.49-2.78,0.31-6.1-0.79-8.65c-1.54-3.59-0.71-7.12-1.24-10.6c-0.66-4.29-1.41-8.71-3.61-12.64c-1.7-3.04-1.64-3.08-5.57-1.3
			c4.09-3.34,1.71-6.35,0.11-9.6c-1.37-2.79-5.69-4.84-4.09-8.18c1.99-4.16,5.94-6.93,10.54-8.41c5.99-1.94,11.89-2.28,17.76,0.49
			c1.1,0.52,2.36,0.67,3.66,1.02c0.43-2.96-2.12-4.58-2.05-8.04c3.77,4.18,5.47,8.73,7.44,12.89c6.96,14.69,10.26,30.35,10.52,46.55
			C701.01,931.23,694.58,940.42,685.03,943.65z"/>
		<path d="M456.55,307.36c-3.28,9.4-0.14,19.03-3.51,27.95c-0.77,2.04,0.45,2,2.37,2.72c6.21,2.32,9.84-1.05,13.8-4.57
			c1.48-1.32,3.34-2.21,6.07-3.97c-1.56,3.85-3.97,5.43-5.98,7.33c-4.63,4.38-4.47,4.49,0.84,7.54c10.3,5.93,21.39,5.88,32.68,4.71
			c-1.79,9.68,3.71,14.83,13.63,12.94c3.07-0.59,6.17-1.19,9.28-1.39c4.98-0.32,6.6,2.51,4.23,7.03c-1.85,3.53-4.92,5.71-8.6,6.39
			c-3.56,0.66-5.5,2.55-6.87,5.59c-2.32,5.14-6.63,7.75-11.92,8.9c-1.38,0.3-3.16,0.86-4.12-0.52c-0.92-1.32,0.8-2.22,1.32-3.31
			c3.54-7.42,4.24-14.5-0.44-22.02c-2.19-3.52-4.19-4.03-7.59-2.93c-7.23,2.33-14.53,4.22-22.24,2.8c-1.8-0.33-3.89-0.33-5.33-1.26
			c-6.46-4.2-12.27-1.5-18.06,1.35c-5.36,2.64-10.73,5.07-16.9,3.47c-2.27-0.59-3.39,0.3-4.31,2.24c-1.97,4.13-2.42,8.42-1.68,12.92
			c-5.27-1.68-9.52-9.11-8.36-14.12c0.43-1.86,1.51-2.44,3.13-2.39c4.53,0.15,6.25-2.23,7.31-6.48c1.67-6.63,7.54-9.7,12.95-12.91
			c2.38-1.41,4.93-2.52,7.29-3.95c1.39-0.84,3.54-1.92,3.69-3.09c0.75-6.1,4.16-12.13,2.29-18.2
			C449.72,314.28,451.32,310.68,456.55,307.36z"/>
		<path d="M390.16,279.87c6.14-3.79,12.69-6.18,19.68-7.71c-8.44,5.61-16.45,11.63-21.61,20.56c-0.92,1.59-1.58,0.82-2.55,0.35
			c-11.2-5.45-21.54-2.17-31.52,3.36c-5.42,3-5.19,3.2-6.93-2.87c-2.72-9.51-2.09-18.52,4.36-28.12c-1.82,7.94-1.21,14.5,1.57,21.33
			c5.11-15.2,12.27-29.31,26.82-36.65c14.28-7.2,29.76-9.01,46.92-2.53C409.41,253.76,397.3,264.04,390.16,279.87z"/>
		<path d="M683.15,399.23c1.11,0.64,2.32,1.15,3.32,1.93c7.72,6,15.12,5.65,22.42-0.81c1.18-1.04,2.95-2.16,4.37-2.07
			c6.09,0.37,8.09-3.03,8.29-8.42c1.55,0.39,1.04,3.33,1.87,2.47c3.69-3.84,9.29-6.28,10.38-12.51c-0.13,2.11-0.26,4.23-0.44,7.07
			c5-3.19,5.59-8.52,8.46-12.42c-0.18,5.77-2.05,9.95-6.43,14.87c-7.37,8.28-15.31,16.14-25.02,21.38
			c-6.52,3.52-13.3,6.82-20.14,9.79c-4.47,1.94-8.9,1.05-12.68-2.66c-2.75-2.7-2.46-4.49,1.09-5.21c4.44-0.9,5.46-3.36,3.4-6.85
			C680.57,403.26,684.98,401.72,683.15,399.23z"/>
		<path d="M539.1,56.35c0.89,9.61-0.7,17.81-2.52,26.04c-0.55,2.48-2.34,2.49-3.94,3.11c-5.83,2.27-11.72,4.39-17.5,6.76
			c-9.25,3.79-16.85,9.66-22.23,18.37c0.85-11.01,3.29-21,14.02-26.89c6.6-3.62,12.94-7.72,19.43-11.54
			C532.26,68.72,535.63,63.1,539.1,56.35z"/>
		<path d="M472.37,101.48c1.9,6.13,1.84,11.77,4.77,17.42c1.56-3.86,0.14-6.98,0.22-10.12c4.01,12.04,10.41,23.59,6.96,37.05
			c-0.72,2.82-2.77,4.97-4.74,6.5c-1.67,1.29-3.25-1.66-4.8-2.75c-9.18-6.47-9.02-16.63-10.05-26.26c-0.27-2.52-0.04-5.08-0.04-8.59
			c3.89,7.1,4.89,14.77,11.48,19.37C473.13,123.65,471.98,113.09,472.37,101.48z"/>
		<path d="M453.35,400.11c-6.34-0.02-6.34-0.02-3.69-7.78c-3.83,0.55-7.7,2.65-11.11-0.36c-0.86-0.75-2.62-1.07-2.24-2.76
			c0.3-1.33,1.18-2.35,2.65-2.46c6.86-0.53,8.13-5.11,8.04-10.84c-0.04-2.69,1.4-4.88,3.08-7.22c1.24,1.8-0.02,3.67,0.52,5.19
			c0.74,2.11-1.27,8.05,4.93,3.6c2.33-1.67,5.41,0.69,7.57,2.27c5.27,3.85,11.13,5.56,17.52,6.01c1.74,0.12,4.67-0.19,4.58,1.88
			c-0.09,2.09-2.01,4.29-4.76,4.53c-5.16,0.47-10.28,0.47-15.37-0.93C453.26,387.99,453.07,388.18,453.35,400.11z"/>
		<path d="M418.75,208.23c4.53-18.85,12.56-35.07,32.48-43.93c-5.39,9-7.77,18.13-8.91,27.6c-0.12,0.97-0.55,1.56-1.62,1.9
			C432.06,196.52,425.28,202.08,418.75,208.23z"/>
		<path d="M449.63,153.6c-1.29,0.71-2.08,1.15-2.87,1.59c-10.28,5.57-10.3,5.59-15.71-5.34c-1.46-2.96-2.82-5.98-4.03-9.05
			c-1.54-3.91-2.88-7.89-4.04-12.05C431,137.65,440.16,145.27,449.63,153.6z"/>
		<path d="M493.74,129.31c1.56-16.31,10.67-25.41,29.8-33.36c-0.47,1.86-2.21,2.31-3.46,3.24c-3.59,2.66-7.32,5.7-8.67,9.77
			C508.33,118.28,502.7,124.99,493.74,129.31z"/>
		<path d="M558.06,87.79c-9.02,13.9-22.18,22.2-37.62,27.31C529.68,101.53,547.04,99.07,558.06,87.79z"/>
		<path d="M455.43,121.75c-3.2-13.57,1.32-25.33,8.19-36.59C461.87,97.55,466.27,111.18,455.43,121.75z"/>
		<path d="M597.91,110.79c-2.05,8.12-8.01,11.96-10.09,18.08c-0.17,0.49-2,0.56-3.06,0.57c-4.94,0.06-9.89,0.03-15.03-0.71
			C578.44,122.21,589.63,120.3,597.91,110.79z"/>
		<path d="M476.3,163.35c-12.73-2.52-15.77,9.73-23.73,15.38c3.07-7.83,4.57-16.24,13.49-19.73
			C471.52,156.86,473.47,157.68,476.3,163.35z"/>
		<path d="M442.73,436.61c-0.52-5.24,1.08-8.28,3.68-11.19c4.35-4.86,8.52-9.9,5.5-17.25c-0.66-1.6-1.45-4.02,1.43-4.29
			c2.25-0.21,4.4,0.74,4.69,3.57c0.64,6.26-1.86,11.8-5.5,16.32C449.45,427.6,445.95,431.12,442.73,436.61z"/>
		<path d="M663.73,817.71c-0.42,6.05,3.17,10.81,5.32,15.98c2.31,5.56,5.22,10.88,7.42,16.54c-5.48-7.13-8.77-15.46-12.94-24.9
			c-1.16,8.35-5.17,13.77-10.68,19.67c0.19-3.81,2.2-5.42,3.48-7.43c1.38-2.17,2.56-4.48,3.68-6.8c0.55-1.13,1.11-2.58-0.02-3.59
			c-1.37-1.22-2.27,0.22-3.26,0.96c-0.95,0.71-1.6,2.17-3.81,1.1c3.76-3.92,7.36-7.67,10.95-11.42
			C663.85,817.82,663.73,817.71,663.73,817.71z"/>
		<path d="M461.09,273.8c-7.49-6.03-15.3-5.73-23.55-5.87C445.29,260.35,457.41,263.02,461.09,273.8z"/>
		<path d="M488.95,266.72c-8.11,2.59-16.19,5.26-24.15,9.54C466.87,266.85,470.8,265.35,488.95,266.72z"/>
		<path d="M447.12,136.74c-3.38-2.42-6.72-14.34-6.54-23.26C444.93,120.62,450.57,127.16,447.12,136.74z"/>
		<path d="M527.45,229.03c3.09,2.98,6.64,5.09,6.31,9.54c-0.1,1.33,1,3.37-1.58,3.98c-2.37,0.56-3.11-0.95-4.17-2.5
			C525.73,236.7,525.95,233.28,527.45,229.03z"/>
		<path d="M475.93,238.63c2.77,6.52-1.2,10.88-5.04,15.14c-2.15,2.38-3.32-1.38-5.44-1.05c4.48-4.16,9.88-7.29,10.57-13.98
			C475.99,238.71,475.93,238.63,475.93,238.63z"/>
		<path d="M465.94,286.98c-1.1-0.98-4.25,0.96-3.95-1.92c0.35-3.32,3.53-4.06,6.31-4.02c1.6,0.03,3.95-0.4,4.8,1.69
			C473.69,284.14,469.01,286.92,465.94,286.98z"/>
		<path d="M501.64,175.92c-2.69-6.01-6.14-10.61-11.81-13.51C496.52,160.09,499.4,163.41,501.64,175.92z"/>
		<path d="M480.7,371.18c6.99,1.47,12.64,3.24,19.51,6.44C492.11,378.33,486.53,376.35,480.7,371.18z"/>
		<path d="M409.1,635.12c-10.31-0.2-14.4,8.24-20.09,14.46c0.21-2.44-0.35-4.58-1.63-6.77c-3.79-6.52-7.07-13.29-9.15-21.05
			c5.77,1.85,11.17,7.44,17.04,1.58c4.42-4.41,6.05-10.35,8.03-16.4C402.14,617.05,406.34,625.92,409.1,635.12z"/>
	</g>
</g>
</svg>
